<?xml version="1.0" encoding="UTF-8" standalone="no"?>
<!-- Created with Inkscape (http://www.inkscape.org/) -->

<svg
   xmlns:dc="http://purl.org/dc/elements/1.1/"
   xmlns:cc="http://creativecommons.org/ns#"
   xmlns:rdf="http://www.w3.org/1999/02/22-rdf-syntax-ns#"
   xmlns:svg="http://www.w3.org/2000/svg"
   xmlns="http://www.w3.org/2000/svg"
   xmlns:sodipodi="http://sodipodi.sourceforge.net/DTD/sodipodi-0.dtd"
   xmlns:inkscape="http://www.inkscape.org/namespaces/inkscape"
   id="svg26570"
   version="1.1"
   inkscape:version="0.91 r13725"
   xml:space="preserve"
   width="500"
   height="500"
   viewBox="0 0 500 500"
   sodipodi:docname="agregar.svg"><metadata
     id="metadata26576"><rdf:RDF><cc:Work
         rdf:about=""><dc:format>image/svg+xml</dc:format><dc:type
           rdf:resource="http://purl.org/dc/dcmitype/StillImage" /><dc:title /></cc:Work></rdf:RDF></metadata><defs
     id="defs26574"><clipPath
       clipPathUnits="userSpaceOnUse"
       id="clipPath26586"><path
         d="M 0,702 0,90 612,90 612,702 0,702 Z"
         id="path26588"
         inkscape:connector-curvature="0" /></clipPath><clipPath
       clipPathUnits="userSpaceOnUse"
       id="clipPath26592"><path
         d="M 0,0 612,0 612,792 0,792 0,0 Z"
         id="path26594"
         inkscape:connector-curvature="0" /></clipPath><clipPath
       clipPathUnits="userSpaceOnUse"
       id="clipPath26602"><path
         d="M 0,702 0,90 612,90 612,702 0,702 Z"
         id="path26604"
         inkscape:connector-curvature="0" /></clipPath><clipPath
       clipPathUnits="userSpaceOnUse"
       id="clipPath26608"><path
         d="M 612,702 612,90 0,90 0,702 612,702 Z"
         id="path26610"
         inkscape:connector-curvature="0" /></clipPath><clipPath
       clipPathUnits="userSpaceOnUse"
       id="clipPath26614"><path
         d="M 0,0 612,0 612,792 0,792 0,0 Z"
         id="path26616"
         inkscape:connector-curvature="0" /></clipPath></defs><sodipodi:namedview
     pagecolor="#ffffff"
     bordercolor="#666666"
     borderopacity="1"
     objecttolerance="10"
     gridtolerance="10"
     guidetolerance="10"
     inkscape:pageopacity="0"
     inkscape:pageshadow="2"
     inkscape:window-width="1241"
     inkscape:window-height="677"
     id="namedview26572"
     showgrid="false"
     inkscape:zoom="0.38752575"
     inkscape:cx="20.352267"
     inkscape:cy="363.05936"
     inkscape:window-x="0"
     inkscape:window-y="0"
     inkscape:window-maximized="0"
     inkscape:current-layer="g26578" /><g
     id="g26578"
     inkscape:groupmode="layer"
     inkscape:label="571202"
     transform="matrix(1.25,0,0,-1.25,0,500)"><circle
       style="opacity:1;fill:#ffffff;fill-opacity:1;stroke:none;stroke-width:59.59999847;stroke-linecap:round;stroke-miterlimit:4;stroke-dasharray:none;stroke-opacity:1"
       id="path4146"
       cx="200"
       cy="-200"
       transform="scale(1,-1)"
       r="196" /><path
       style="fill:#006ea7;fill-opacity:1;stroke:none;stroke-width:50;stroke-linecap:round;stroke-miterlimit:4;stroke-dasharray:none"
       d="M 250 5 A 245 245 0 0 0 5 250 A 245 245 0 0 0 250 495 A 245 245 0 0 0 495 250 A 245 245 0 0 0 250 5 z M 241.67578 60.335938 L 258.32422 60.335938 C 270.33271 60.335938 280 70.70799 280 83.59375 L 280 220 L 416.40625 220 C 429.29201 220 439.66406 229.66729 439.66406 241.67578 L 439.66406 258.32422 C 439.66406 270.33271 429.29201 280 416.40625 280 L 280 280 L 280 416.40625 C 280 429.29201 270.33271 439.66406 258.32422 439.66406 L 241.67578 439.66406 C 229.66729 439.66406 220 429.29201 220 416.40625 L 220 280 L 83.59375 280 C 70.70799 280 60.335937 270.33271 60.335938 258.32422 L 60.335938 241.67578 C 60.335938 229.66729 70.70799 220 83.59375 220 L 220 220 L 220 83.59375 C 220 70.70799 229.66729 60.335938 241.67578 60.335938 z "
       transform="matrix(0.8,0,0,-0.8,0,400)"
       id="path49042" /></g></svg>
