<?xml version="1.0" encoding="UTF-8" standalone="no"?>
<!-- Created with Inkscape (http://www.inkscape.org/) -->

<svg
   xmlns:dc="http://purl.org/dc/elements/1.1/"
   xmlns:cc="http://creativecommons.org/ns#"
   xmlns:rdf="http://www.w3.org/1999/02/22-rdf-syntax-ns#"
   xmlns:svg="http://www.w3.org/2000/svg"
   xmlns="http://www.w3.org/2000/svg"
   xmlns:sodipodi="http://sodipodi.sourceforge.net/DTD/sodipodi-0.dtd"
   xmlns:inkscape="http://www.inkscape.org/namespaces/inkscape"
   id="svg2"
   version="1.1"
   inkscape:version="0.91 r13725"
   xml:space="preserve"
   width="500"
   height="500"
   viewBox="0 0 500 500"
   sodipodi:docname="eliminar.svg"><metadata
     id="metadata8"><rdf:RDF><cc:Work
         rdf:about=""><dc:format>image/svg+xml</dc:format><dc:type
           rdf:resource="http://purl.org/dc/dcmitype/StillImage" /><dc:title /></cc:Work></rdf:RDF></metadata><defs
     id="defs6" /><sodipodi:namedview
     pagecolor="#ffffff"
     bordercolor="#666666"
     borderopacity="1"
     objecttolerance="10"
     gridtolerance="10"
     guidetolerance="10"
     inkscape:pageopacity="0"
     inkscape:pageshadow="2"
     inkscape:window-width="1280"
     inkscape:window-height="755"
     id="namedview4"
     showgrid="false"
     inkscape:zoom="0.59471071"
     inkscape:cx="317.15428"
     inkscape:cy="154.27477"
     inkscape:window-x="0"
     inkscape:window-y="1"
     inkscape:window-maximized="1"
     inkscape:current-layer="g10" /><g
     id="g10"
     inkscape:groupmode="layer"
     inkscape:label="ink_ext_XXXXXX"
     transform="matrix(1.25,0,0,-1.25,0,500)"><rect
       style="opacity:1;fill:#ffffff;fill-opacity:1;stroke:none;stroke-width:59.59999847;stroke-linecap:round;stroke-miterlimit:4;stroke-dasharray:none;stroke-opacity:1"
       id="rect4136"
       width="225.99223"
       height="216.57588"
       x="87.003883"
       y="-243.47972"
       transform="scale(1,-1)" /><path
       style="fill:#006ea7;fill-opacity:1;fill-rule:nonzero;stroke:none"
       d="m 68.756301,288.67932 0,-243.759879 c 0,-23.409858 14.69491,-42.386625 32.809129,-42.386625 l 196.86915,0 c 18.11423,0 32.80912,18.976767 32.80912,42.386625 l 0,243.759879 -262.487399,0 z m 53.014849,-62.60928 a 16.740018,21.626694 0 0 0 16.60139,-19.06866 l 0.13863,0 0,-2.55804 0,-134.529859 -0.0837,0 a 16.740018,21.626694 0 0 0 -16.65632,-19.457269 16.740018,21.626694 0 0 0 -16.6367,19.457269 l -0.10332,0 0,134.529859 0,2.55804 0.13078,0 a 16.740018,21.626694 0 0 0 16.60924,19.06866 z m 78.22558,-0.78734 a 16.740018,21.626694 0 0 0 16.60139,-19.06867 l 0.13863,0 0,-2.55803 0,-134.529869 -0.0837,0 a 16.740018,21.626694 0 0 0 -16.65632,-19.45726 16.740018,21.626694 0 0 0 -16.6367,19.45726 l -0.10331,0 0,134.529869 0,2.55803 0.13077,0 a 16.740018,21.626694 0 0 0 16.60924,19.06867 z m 78.22558,-1.57639 a 16.740018,21.626694 0 0 0 16.60139,-19.06866 l 0.13864,0 0,-2.55803 0,-134.529868 -0.0837,0 a 16.740018,21.626694 0 0 0 -16.65636,-19.457268 16.740018,21.626694 0 0 0 -16.6367,19.457268 l -0.10331,0 0,134.529868 0,2.55803 0.13077,0 a 16.740018,21.626694 0 0 0 16.60924,19.06866 z"
       id="path172"
       inkscape:connector-curvature="0" /><path
       style="opacity:1;fill:#006ea7;fill-opacity:1;stroke:none;stroke-width:0;stroke-linecap:round;stroke-miterlimit:4;stroke-dasharray:none;stroke-opacity:1"
       d="m 43.30078,358.85329 0,-0.14813 a 20,24 0 0 1 -17.99375,-23.85187 20,24 0 0 1 17.99375,-23.88 l 0,-0.12 104.925,0 19.48594,0 2.36562,0 102.55938,0 82.05625,0 2.36562,0 0,0.19874 a 20,24 0 0 1 17.63438,23.80126 20,24 0 0 1 -17.63438,23.8125 l 0,0.1875 -2.36562,0 -82.05625,0 -102.55938,0 -2.36562,0 -19.48594,0 -104.925,0 z"
       id="path37727"
       inkscape:connector-curvature="0" /><path
       inkscape:connector-curvature="0"
       id="path37734"
       d="m 281.20232,365.08397 a 20,30.088939 0 0 1 -17.6343,29.85395 l 0,0.23499 -2.3657,0 -124.41088,0 0,-0.18565 a 20,30.088939 0 0 1 -17.99375,-29.90329 20,30.088939 0 0 1 17.99375,-29.93849 l 0,-0.15045 124.41088,0 2.3657,0 0,0.24929 a 20,30.088939 0 0 1 17.6343,29.83965 z"
       style="opacity:1;fill:#006ea7;fill-opacity:1;stroke:none;stroke-width:0;stroke-linecap:round;stroke-miterlimit:4;stroke-dasharray:none;stroke-opacity:1" /></g></svg>
