<?xml version="1.0" standalone="no"?>
<!DOCTYPE svg PUBLIC "-//W3C//DTD SVG 20010904//EN"
 "http://www.w3.org/TR/2001/REC-SVG-20010904/DTD/svg10.dtd">
<svg version="1.0" xmlns="http://www.w3.org/2000/svg"
 width="500.000000pt" height="200.000000pt" viewBox="0 0 500.000000 200.000000"
 preserveAspectRatio="xMidYMid meet">
<metadata>
Created by potrace 1.15, written by Peter Selinger 2001-2017
</metadata>
<g transform="translate(0.000000,200.000000) scale(0.100000,-0.100000)"
fill="#000000" stroke="none">
<path d="M174 1935 c3 -37 0 -65 -5 -65 -12 0 0 -51 17 -70 7 -8 29 -50 50
-93 20 -42 40 -80 45 -82 4 -3 13 3 19 14 7 13 16 18 27 14 14 -6 15 1 9 53
-3 32 -11 92 -18 131 -12 75 -8 94 15 75 15 -13 30 -83 57 -277 26 -182 33
-211 51 -206 36 10 181 15 189 7 17 -17 11 -23 -37 -36 -27 -8 -58 -20 -70
-28 -13 -8 -38 -12 -58 -10 -35 4 -36 4 -29 -26 4 -17 8 -39 8 -48 0 -11 4
-14 11 -8 8 7 17 -2 28 -25 l17 -35 -25 0 c-15 0 -25 -6 -25 -14 0 -19 17 -30
22 -14 2 6 10 8 17 4 8 -6 9 -11 2 -20 -12 -14 -5 -26 16 -26 7 0 12 9 10 23
-2 19 3 22 33 22 34 0 35 -1 32 -35 -4 -57 -62 -121 -82 -90 -8 12 -13 11 -33
-8 -13 -12 -26 -22 -29 -22 -7 0 -20 98 -23 185 -2 54 -36 207 -49 222 -2 2
-31 7 -65 11 l-63 9 -55 -51 -56 -52 8 -107 c4 -59 11 -105 15 -102 4 3 6 13
3 23 -2 10 3 24 12 32 14 11 17 10 22 -8 7 -27 23 -29 30 -3 4 15 15 19 54 20
44 1 49 -1 49 -22 -1 -62 -96 -110 -146 -72 -29 22 -37 18 -29 -12 5 -16 9
-39 10 -53 4 -39 4 -40 20 -40 26 0 28 -27 6 -63 -45 -73 -18 -92 114 -83 91
7 93 7 99 -16 3 -13 6 -35 6 -50 0 -27 -1 -27 -42 -22 -24 3 -71 -1 -106 -9
l-62 -14 -46 68 c-47 71 -69 83 -54 29 10 -35 1 -38 -25 -10 -23 26 -38 26
-31 0 3 -11 9 -29 12 -40 5 -18 2 -20 -20 -14 -29 7 -35 -11 -15 -48 8 -15 8
-19 0 -14 -7 5 -11 -4 -11 -23 0 -27 4 -31 26 -31 23 0 25 2 14 15 -10 12 -10
19 -2 27 8 8 13 7 18 -5 3 -9 12 -17 20 -17 8 0 14 -4 14 -10 0 -5 110 -9 280
-10 244 0 280 2 280 15 0 8 5 15 10 15 6 0 10 -7 10 -15 0 -14 29 -16 225 -14
195 2 227 4 235 18 9 15 11 14 24 -1 12 -16 36 -18 240 -18 144 0 226 4 226
10 0 6 9 10 20 10 11 0 20 -4 20 -10 0 -5 5 -10 11 -10 6 0 8 7 5 16 -5 12 -2
15 10 10 10 -4 25 1 36 10 10 10 21 15 24 11 9 -9 -6 -27 -30 -37 -12 -5 109
-9 292 -9 l312 -1 0 44 c0 56 -37 230 -56 269 -21 40 -81 95 -126 115 l-36 16
5 67 c3 38 1 80 -5 98 -8 21 -8 33 0 37 15 10 5 94 -18 140 -16 34 -62 75 -95
86 -7 2 -5 24 6 63 10 33 22 79 28 103 7 23 16 42 22 42 6 0 19 -16 29 -35 18
-34 63 -65 93 -65 22 0 6 17 -23 24 -29 8 -38 15 -72 64 -16 22 -21 39 -16 57
4 15 2 25 -5 25 -6 0 -11 -7 -11 -16 0 -19 -60 -176 -73 -189 -9 -10 -6 25 7
70 4 11 -1 4 -10 -15 -23 -49 -34 -90 -24 -90 5 0 11 6 14 13 3 6 5 3 3 -8 -4
-33 -41 -25 -48 10 l-6 30 -4 -35 c-2 -21 -10 -36 -19 -38 -13 -2 -15 15 -15
110 0 97 2 113 17 116 9 2 18 -5 21 -15 3 -12 5 -8 6 10 1 20 -4 27 -18 27
-11 0 -23 5 -27 11 -5 8 1 10 19 7 21 -4 26 -1 31 24 5 26 9 28 51 28 45 0 46
0 42 -32 -2 -18 -9 -43 -15 -55 -7 -12 -12 -32 -11 -45 0 -14 8 -2 20 32 25
69 52 122 65 123 13 1 34 23 34 36 0 6 -9 11 -20 11 -11 0 -20 5 -20 10 0 12
0 12 36 0 17 -6 37 -25 48 -44 19 -37 56 -61 78 -53 7 3 4 6 -9 6 -13 1 -29
14 -42 34 -11 18 -29 42 -41 52 -11 10 -20 22 -20 26 0 10 72 -17 115 -43 37
-22 59 -23 52 -3 -4 8 -2 17 4 21 7 4 6 10 -1 19 -8 10 -7 14 7 18 10 3 -60 5
-154 6 l-173 1 6 -27 c3 -17 -1 -36 -10 -48 -18 -25 -35 -11 -18 16 11 18 10
19 -13 13 -19 -5 -25 -2 -25 10 0 9 5 15 11 14 6 -2 14 3 16 10 4 9 -43 12
-215 12 l-219 0 -7 -132 c-3 -73 -9 -174 -13 -225 l-6 -91 -62 0 -63 0 -6 37
c-3 20 -8 86 -11 146 -6 112 -22 222 -34 230 -4 2 -3 -22 2 -53 5 -31 12 -120
15 -197 4 -77 10 -145 14 -151 11 -17 -11 -31 -57 -37 -45 -6 -65 5 -65 37 -1
11 -8 32 -16 46 l-15 25 4 -25 c2 -14 6 -32 8 -40 3 -12 -7 -15 -48 -15 -33 0
-53 -4 -53 -11 0 -6 -10 -15 -22 -21 -18 -8 -26 -6 -41 11 -19 21 -19 21 -2
-7 19 -33 10 -51 -11 -22 -14 19 -19 21 -56 24 -10 0 -27 20 -39 43 -12 24
-35 58 -50 78 -16 19 -38 46 -49 60 -16 20 -21 22 -29 11 -5 -8 -14 -10 -22
-6 -9 6 -7 10 9 16 34 13 26 29 -13 29 -34 0 -46 12 -25 25 16 10 3 41 -54
132 -50 81 -52 82 -91 81 -23 0 -30 -3 -17 -5 13 -3 21 -10 19 -16 -2 -7 -11
-11 -21 -9 -35 6 -13 -15 27 -25 33 -9 50 -22 76 -58 18 -25 31 -48 28 -51
-12 -12 -143 32 -165 56 -16 17 -25 21 -29 13 -9 -24 -32 -13 -49 22 -9 19
-20 35 -24 35 -5 0 -12 9 -15 20 -5 17 -15 20 -72 20 -47 0 -64 -3 -61 -12 3
-7 14 -14 26 -16 23 -3 48 -29 39 -39 -11 -10 -76 27 -82 47 -5 16 -15 20 -51
20 l-45 0 5 -65z m1676 -211 l0 -174 -24 -10 c-13 -5 -27 -14 -31 -19 -9 -15
-40 -14 -54 3 -17 20 -61 27 -61 10 0 -8 8 -14 18 -14 10 0 26 -6 36 -13 16
-12 16 -15 2 -42 -9 -17 -16 -36 -16 -42 0 -24 -20 -13 -49 27 -16 22 -31 36
-33 31 -4 -11 -68 -2 -68 11 0 5 18 17 40 26 l40 17 -2 90 -2 90 -3 -87 -4
-87 -33 -11 c-19 -6 -44 -20 -57 -30 -12 -11 -29 -20 -37 -20 -13 0 -14 23 -9
176 4 97 10 181 14 187 4 6 11 3 19 -7 8 -12 19 -16 32 -11 18 5 20 2 18 -28
-3 -29 1 -36 28 -50 42 -21 74 -27 78 -15 2 6 31 13 63 17 56 7 58 8 33 19
-15 6 -50 8 -82 5 -39 -4 -56 -2 -56 6 0 6 6 11 14 11 7 0 27 7 42 15 17 9 40
13 56 9 15 -3 33 -2 40 3 20 12 -39 21 -104 15 l-58 -5 0 40 0 40 80 -1 c44
-1 85 1 92 5 32 20 38 -11 38 -187z m-1440 46 c0 -5 25 -33 56 -62 l57 -55 32
35 32 35 46 -97 c26 -54 47 -101 47 -104 0 -3 7 -14 17 -24 9 -10 11 -18 5
-18 -6 0 -47 37 -92 83 -97 98 -77 52 25 -57 35 -39 62 -72 59 -75 -3 -3 -24
14 -47 39 -23 25 -51 50 -63 56 -20 10 -90 5 -140 -11 -20 -6 -22 -1 -33 70
-14 99 -14 115 4 115 13 0 13 4 3 22 -7 12 -19 28 -25 36 -7 7 -13 20 -13 29
0 13 3 13 15 3 8 -7 15 -16 15 -20z m628 -408 c2 -40 7 -72 12 -72 5 0 10 33
12 72 2 57 6 73 19 76 19 4 67 -33 56 -44 -4 -4 -13 -2 -19 4 -7 7 -19 12 -28
12 -14 0 -15 -8 -10 -52 5 -39 3 -59 -8 -75 -16 -26 -40 -30 -48 -8 -4 8 -15
15 -25 15 -24 0 -24 8 1 28 18 15 20 23 13 57 l-9 39 -30 -29 c-17 -17 -36
-40 -43 -53 -10 -20 -9 -23 14 -34 31 -14 27 -33 -6 -34 -14 0 -30 -4 -37 -8
-23 -14 -27 4 -9 32 10 15 27 46 37 69 18 41 73 87 95 80 6 -2 11 -36 13 -75z
m-374 6 c-3 -13 -11 -24 -15 -26 -5 -2 -9 -19 -9 -38 0 -40 -16 -44 -32 -9
-13 30 -28 33 -21 5 3 -11 18 -31 34 -44 16 -14 29 -31 29 -39 0 -8 7 -17 15
-21 8 -3 15 -13 15 -23 0 -10 9 -33 20 -51 25 -41 25 -44 -2 -40 -31 4 -48
-47 -22 -68 18 -14 18 -14 -1 -29 -11 -8 -26 -19 -32 -25 -8 -7 -13 -7 -13 -1
0 6 8 14 17 20 27 15 10 23 -22 11 -30 -12 -55 -7 -55 10 0 5 7 10 15 10 8 0
15 7 15 15 0 8 4 15 10 15 5 0 9 6 7 13 -1 6 4 11 12 9 8 -2 11 3 8 13 -4 10
0 15 11 16 10 0 12 3 5 6 -7 2 -13 11 -13 19 0 8 6 14 13 14 9 0 9 2 -1 9 -8
4 -13 14 -12 22 1 8 2 26 1 41 -1 24 -4 26 -36 24 -19 -2 -35 1 -35 6 0 9 -17
33 -61 86 -13 16 0 34 28 37 10 1 34 9 53 18 19 9 45 16 58 17 20 0 22 -4 16
-22z m1261 -78 c5 -57 -35 -109 -82 -110 -18 0 -23 6 -23 26 0 23 -1 24 -16 9
-26 -26 -39 -12 -41 43 -2 40 1 52 12 52 8 0 15 -7 15 -16 0 -20 45 -15 46 6
1 8 2 18 2 21 1 3 21 6 43 5 40 -1 42 -2 44 -36z m-584 -72 c-4 -57 -24 -93
-59 -107 -37 -15 -98 -11 -95 7 2 6 -4 12 -12 12 -9 0 -16 10 -16 23 -4 76 -3
90 9 95 7 2 19 -4 27 -14 13 -18 14 -18 24 8 9 23 16 27 58 30 26 2 52 0 58
-5 5 -4 8 -26 6 -49z m382 29 c4 3 7 -1 7 -11 0 -9 -4 -15 -9 -11 -21 12 -21
-17 0 -33 21 -18 21 -19 4 -55 -21 -45 -38 -46 -76 -6 -16 17 -29 25 -29 18 0
-8 16 -27 35 -43 43 -36 45 -52 5 -31 -41 21 -73 74 -58 93 9 10 8 16 -3 23
-20 14 24 49 62 49 16 0 29 5 29 11 0 8 4 9 13 0 8 -6 17 -8 20 -4z m-613 -34
c-1 -16 -7 -39 -14 -52 -12 -21 -11 -26 6 -43 11 -11 17 -22 14 -25 -3 -3 -13
3 -23 15 -17 19 -22 20 -65 9 -27 -6 -48 -15 -48 -20 0 -5 9 -6 19 -2 14 4 21
0 26 -15 4 -12 4 -24 1 -27 -3 -4 -6 -2 -6 4 0 6 -14 13 -31 17 -25 5 -30 10
-26 25 3 11 -2 29 -10 41 -16 22 -10 75 7 65 6 -3 10 -1 10 4 0 17 21 13 37
-6 11 -13 16 -15 20 -5 10 24 35 42 59 42 20 0 24 -5 24 -27z m-338 -19 c-3
-18 0 -24 13 -24 13 0 16 6 13 25 -6 29 24 44 47 25 39 -32 2 -126 -53 -136
-44 -9 -86 27 -79 69 2 15 0 30 -5 33 -15 10 -8 22 20 32 37 12 50 6 44 -24z"/>
<path d="M703 1993 c3 -5 23 -47 46 -95 30 -64 46 -87 62 -90 14 -2 31 -22 52
-60 20 -37 37 -57 46 -55 11 1 27 -21 49 -67 18 -37 36 -66 39 -62 8 8 -14 59
-75 166 -59 104 -59 118 -3 134 26 7 34 6 46 -10 18 -23 -18 76 -43 118 -16
28 -17 28 -120 28 -57 0 -101 -3 -99 -7z"/>
<path d="M3750 1989 c0 -6 14 -38 30 -71 17 -32 30 -65 30 -74 0 -14 -55 -41
-72 -36 -4 1 -14 -13 -21 -31 -8 -18 -29 -48 -48 -66 -29 -29 -30 -33 -10 -26
20 6 22 4 17 -13 -5 -13 -1 -22 10 -26 14 -5 16 -1 11 22 -8 37 0 47 51 67 23
10 42 22 42 27 0 6 -11 3 -25 -6 -13 -9 -32 -16 -42 -16 -17 1 -17 1 0 14 9 7
17 18 17 24 0 11 52 32 80 32 9 0 25 9 35 20 16 18 20 18 34 6 9 -8 30 -18 46
-21 17 -4 41 -19 54 -32 20 -21 22 -28 12 -49 -6 -13 -17 -24 -24 -24 -8 0
-18 -15 -23 -32 -8 -25 -16 -34 -39 -38 -15 -3 -30 -11 -33 -18 -3 -11 0 -12
18 -2 12 6 32 9 43 7 12 -3 31 -2 41 2 17 7 18 8 3 14 -25 10 -21 34 12 65 33
31 52 76 28 66 -8 -3 -21 3 -28 14 -8 10 -30 27 -49 38 -19 10 -38 24 -42 29
-4 6 -24 10 -44 10 -40 0 -42 2 -76 83 -20 48 -38 67 -38 41z"/>
<path d="M4202 1933 c-2 -53 2 -73 11 -73 6 0 23 -3 37 -6 21 -6 23 -4 13 7
-15 15 -17 65 -4 73 8 6 30 -52 34 -92 2 -19 -6 -26 -38 -38 -22 -9 -50 -18
-62 -21 -13 -3 -23 -10 -23 -15 0 -6 13 -7 31 -3 32 7 32 7 25 -26 -20 -95
-20 -99 3 -99 12 0 37 -7 56 -14 30 -13 35 -13 35 -1 0 8 -11 17 -25 21 -14 3
-22 11 -18 17 4 6 -3 8 -21 3 -21 -5 -26 -3 -26 13 0 11 11 28 25 39 29 23 32
32 9 32 -34 0 -7 33 40 48 52 18 75 44 35 40 -18 -3 -24 4 -32 32 -5 19 -12
37 -16 40 -4 3 -13 24 -19 48 -7 23 -17 42 -22 42 -6 0 -11 -19 -12 -42 0 -24
-2 -47 -3 -53 -2 -5 -3 -16 -4 -24 -3 -34 -16 6 -22 62 l-6 62 -1 -72z"/>
<path d="M3515 1624 l-30 -15 37 5 c26 3 44 -1 59 -13 l22 -18 -24 -32 c-13
-17 -29 -29 -36 -27 -9 4 -13 -4 -13 -22 0 -24 -4 -27 -36 -29 -50 -2 -70 -23
-24 -23 19 -1 45 -9 57 -19 19 -16 22 -27 19 -77 -2 -33 -13 -81 -25 -108 -11
-27 -21 -55 -21 -63 0 -21 -31 -63 -46 -63 -8 0 -14 7 -14 16 0 12 -6 15 -22
11 -15 -4 -32 1 -48 13 -22 17 -22 20 -6 20 15 0 16 3 6 15 -6 8 -9 23 -5 35
8 24 2 25 -19 4 -9 -8 -16 -28 -16 -44 0 -16 -7 -33 -16 -38 -8 -5 -21 -26
-29 -48 -8 -21 -14 -31 -15 -22 0 23 -29 37 -63 31 -35 -7 -35 12 1 25 l27 10
-27 1 c-31 1 -34 4 -43 54 -7 33 -5 37 14 37 21 0 21 1 -4 27 -27 30 -33 53
-13 53 9 0 9 3 1 11 -6 6 -9 19 -6 28 5 13 4 14 -8 3 -10 -10 -14 -39 -13
-110 0 -53 -1 -88 -4 -77 -2 11 -9 26 -14 32 -6 7 -12 43 -14 80 -3 51 -2 63
6 48 9 -18 10 -17 7 7 -2 15 -1 47 3 72 5 33 3 46 -6 50 -9 4 -14 -9 -16 -42
-5 -61 -16 -31 -50 125 -10 49 -16 61 -27 54 -8 -5 -12 -15 -9 -22 3 -8 6 -17
7 -22 0 -4 8 -21 16 -37 15 -29 9 -40 -11 -20 -6 6 -39 11 -75 11 -125 2 -235
-65 -246 -148 -4 -32 -1 -44 15 -59 28 -26 60 -168 41 -180 -6 -3 -9 -29 -8
-58 6 -107 4 -110 -53 -137 -29 -13 -65 -37 -81 -52 -27 -26 -30 -27 -47 -12
-10 9 -19 36 -23 69 -3 30 -13 68 -22 85 -13 27 -14 40 -4 90 6 33 9 65 7 73
-6 14 -27 -79 -33 -141 -2 -27 1 -41 11 -45 10 -4 14 -22 14 -59 0 -44 5 -61
32 -98 18 -24 38 -49 44 -56 6 -7 15 -32 18 -58 l7 -45 68 0 c55 0 71 4 86 20
25 27 93 27 128 0 20 -16 40 -20 102 -20 57 0 75 3 72 13 -2 6 -10 11 -16 10
-6 -2 -11 6 -11 17 0 11 5 20 10 20 6 0 10 -7 10 -16 0 -10 7 -14 23 -12 17 2
22 10 22 33 0 23 5 30 20 30 25 1 45 13 45 27 0 15 -49 1 -82 -23 -33 -23 -36
-12 -7 25 21 26 24 27 99 23 l78 -4 6 28 c6 32 54 109 67 109 13 0 10 -12 -6
-34 -19 -25 -19 -47 -1 -40 8 3 16 18 18 32 2 19 10 28 26 30 24 4 68 40 58
49 -2 3 -19 -2 -35 -10 -17 -9 -31 -11 -31 -7 0 29 114 46 130 20 13 -21 1
-32 -21 -19 -12 6 -23 8 -26 6 -8 -8 36 -29 47 -22 6 3 10 1 10 -6 0 -10 3
-10 12 -1 18 18 33 15 18 -3 -7 -9 -19 -14 -26 -11 -20 8 -70 -39 -93 -88 -23
-47 -28 -92 -17 -144 l8 -32 108 0 c99 0 108 2 113 20 3 10 -1 24 -9 31 -7 6
-13 26 -12 43 1 39 -7 56 -28 56 -10 0 -13 6 -10 18 7 21 -3 36 -27 45 -10 4
-15 11 -12 17 4 7 12 7 24 0 12 -6 22 -5 28 1 17 17 26 -7 13 -32 -10 -18 -9
-20 7 -17 10 2 17 11 15 20 -5 32 18 29 55 -8 l38 -36 3 28 c2 16 12 36 21 45
20 19 72 22 83 5 12 -17 9 -26 -6 -26 -15 0 -24 -37 -30 -124 -4 -52 -2 -59
16 -64 14 -3 16 -7 7 -13 -7 -4 70 -8 172 -9 l184 -1 -4 47 c-3 40 -1 46 13
41 13 -5 16 1 16 36 0 51 20 83 57 90 90 19 92 19 122 -2 19 -14 32 -18 36
-11 4 6 -10 17 -31 26 -27 11 -34 18 -26 26 8 8 19 8 38 -1 32 -14 59 -7 104
30 33 28 60 37 60 21 0 -4 -9 -13 -21 -20 -12 -7 -18 -16 -15 -19 3 -3 12 -1
20 6 11 10 18 6 35 -18 l22 -30 -28 -6 c-89 -18 -163 -96 -163 -171 l0 -45
107 3 c67 2 108 7 110 14 2 6 -3 14 -12 18 -11 4 -14 2 -9 -6 5 -8 2 -9 -12
-4 -10 5 -27 11 -36 13 -11 3 -18 15 -18 30 0 19 -4 24 -15 19 -20 -7 -32 23
-14 35 21 13 29 11 29 -7 0 -22 25 -11 26 12 2 37 4 44 14 44 6 0 11 -12 11
-27 2 -27 2 -27 6 -3 6 30 23 51 23 27 0 -20 42 -46 48 -28 2 6 13 11 23 11
28 0 79 28 79 43 0 8 3 8 9 -2 5 -7 10 -9 12 -5 8 19 97 74 101 63 3 -9 9 -9
24 -1 16 9 26 8 42 -4 20 -14 22 -14 22 0 0 9 7 16 15 16 12 0 15 17 15 90 l0
90 -28 -6 c-23 -5 -36 1 -68 30 -21 20 -41 31 -43 25 -2 -6 1 -14 6 -18 6 -3
15 -36 20 -74 l10 -67 -56 -26 c-31 -14 -75 -43 -97 -66 -37 -35 -46 -39 -73
-33 -37 8 -41 25 -6 25 25 0 35 15 14 22 -5 2 10 18 35 35 64 45 78 79 80 187
1 66 -3 93 -14 104 -10 11 -15 12 -18 2 -2 -6 1 -17 7 -23 16 -16 13 -28 -6
-25 -19 3 -52 -52 -53 -89 0 -12 -5 -34 -11 -50 l-11 -28 -15 41 c-7 23 -24
50 -36 61 -27 25 -67 39 -67 24 0 -6 5 -11 10 -11 6 0 10 -5 10 -11 0 -7 -11
-8 -30 -4 -17 4 -30 2 -30 -3 0 -14 30 -25 58 -23 28 3 30 -25 2 -32 -13 -3
-18 -11 -14 -20 9 -23 -14 -57 -38 -57 -12 0 -43 -14 -70 -31 -56 -36 -70 -33
-34 6 15 17 26 40 26 57 0 47 41 118 72 125 15 3 25 10 22 15 -3 5 -12 7 -18
5 -7 -3 -19 -1 -26 3 -11 7 -11 12 -2 23 10 12 9 16 -3 21 -8 3 -15 14 -15 24
0 11 -7 25 -16 33 -13 11 -14 9 -9 -12 6 -24 -33 -121 -55 -134 -5 -3 -10 -14
-10 -24 0 -30 -54 -81 -84 -81 -22 0 -27 4 -22 16 22 57 16 74 -31 88 -18 6
-20 4 -16 -14 3 -11 0 -20 -6 -20 -6 0 -11 11 -11 25 0 18 -5 25 -20 25 -33 0
-33 25 -2 57 17 16 35 47 41 69 10 35 8 41 -12 59 -40 35 -79 93 -68 100 23
13 9 21 -31 18 -52 -4 -77 -23 -31 -23 28 0 38 -9 78 -65 42 -58 45 -66 33
-87 -6 -13 -11 -30 -10 -38 1 -10 -1 -11 -4 -2 -9 18 -24 14 -24 -7 0 -10 -7
-24 -15 -31 -8 -7 -15 -18 -15 -25 0 -7 -7 -15 -15 -19 -8 -3 -12 -12 -9 -21
4 -10 0 -15 -11 -15 -13 0 -15 -6 -10 -29 3 -17 2 -32 -4 -36 -7 -4 -11 3 -11
17 0 51 -10 64 -47 65 -35 1 -35 -12 1 -19 11 -1 21 -8 23 -14 5 -14 -65 -90
-74 -80 -4 3 6 19 20 34 30 31 35 52 12 52 -8 0 -15 -4 -15 -9 0 -5 -6 -11
-14 -14 -11 -5 -12 1 -4 29 5 19 6 39 2 45 -4 8 0 8 14 0 29 -16 62 -14 62 4
0 8 -8 14 -17 13 -33 -2 -53 2 -53 12 0 6 9 10 21 10 12 0 19 5 16 13 -5 13
-21 14 -52 1 -17 -7 -18 -6 -7 8 7 9 12 25 10 35 -2 11 2 17 11 15 12 -3 12 0
1 12 -7 9 -10 17 -6 17 3 1 11 3 16 4 6 1 13 3 17 4 4 0 2 6 -5 13 -15 15 -16
48 -2 48 6 0 10 -8 10 -17 0 -13 3 -14 12 -5 9 9 9 15 0 24 -18 18 -14 46 8
53 25 8 26 25 3 25 -25 0 -39 -12 -47 -37 -9 -27 -23 -30 -29 -5 -4 14 -6 14
-12 -5 -6 -18 -11 -21 -25 -13 -41 22 -90 -2 -90 -43 0 -21 9 -21 32 0 17 15
19 15 32 -3 8 -10 18 -15 23 -11 4 5 -3 16 -16 26 -31 24 -15 32 28 14 32 -13
33 -16 27 -56 -3 -23 -7 -51 -9 -62 -3 -11 -5 -25 -6 -32 0 -7 -7 -10 -15 -7
-8 3 -20 -8 -30 -30 -18 -37 -52 -52 -42 -18 4 12 -3 27 -19 42 -21 19 -25 21
-25 7 0 -9 -4 -17 -10 -17 -5 0 -10 8 -10 19 0 10 -8 21 -18 23 -13 4 -17 13
-16 34 1 16 3 40 3 53 1 16 6 21 15 18 10 -4 18 5 25 25 16 45 14 58 -9 58
-12 0 -21 7 -22 18 -2 32 -4 37 -11 50 -5 7 -4 12 2 12 6 0 11 7 11 15 0 8 -7
15 -15 15 -9 0 -15 -6 -14 -12 1 -7 1 -30 0 -52 -1 -33 -3 -37 -16 -26 -25 21
-27 5 -2 -18 22 -21 22 -25 14 -109 -10 -96 -25 -126 -76 -156 -31 -18 -31
-18 -40 6 -19 49 -50 48 -33 -1 8 -23 6 -33 -9 -53 -16 -21 -24 -20 -20 3 0 4
-8 12 -19 18 -11 6 -20 17 -20 26 0 11 4 12 18 5 11 -6 24 -6 32 -1 12 7 11
10 -5 16 -41 15 -45 24 -31 59 10 22 11 36 4 43 -16 16 0 36 17 22 11 -9 16
-6 25 11 9 17 9 20 0 14 -14 -9 -30 11 -30 38 0 23 21 22 27 -3 3 -11 9 -17
14 -14 11 7 -8 44 -22 44 -14 0 -48 41 -49 58 0 6 4 12 10 12 5 0 7 6 5 13 -2
6 6 24 20 40 21 24 32 27 87 29 60 1 61 1 18 7 -47 6 -43 20 7 23 15 1 30 6
33 10 11 15 82 -4 88 -24 6 -24 27 -23 46 4 18 25 13 36 -8 19 -11 -10 -21 -9
-43 2 -41 21 -99 29 -123 17 -11 -5 -28 -14 -38 -19 -19 -9 -45 0 -70 26 -16
16 -19 15 -57 -3z m-651 -223 c10 -11 32 -23 50 -27 38 -8 76 -41 76 -66 0
-10 -9 -36 -20 -58 -11 -22 -20 -48 -20 -59 0 -11 -10 -41 -22 -66 l-22 -45
-24 23 -24 22 7 -37 7 -38 -40 0 c-42 0 -66 16 -38 25 47 15 51 19 24 23 -31
4 -37 19 -11 29 14 6 14 7 -4 14 -21 7 -39 62 -27 81 4 5 0 21 -7 36 -11 20
-11 26 -1 29 17 6 15 23 -3 23 -26 0 -16 33 22 72 42 43 53 46 77 19z m164
-401 c13 0 11 -4 -6 -16 -20 -14 -33 -52 -13 -40 4 3 16 -1 26 -8 19 -14 20
-12 -67 -128 -12 -16 -18 -16 -73 -3 -33 8 -76 12 -96 9 -32 -5 -39 -3 -58 25
-12 17 -31 31 -41 31 -10 0 -22 5 -25 10 -4 6 8 10 29 10 19 0 37 -4 40 -9 8
-12 61 -23 119 -26 38 -1 58 4 93 26 24 16 44 34 44 40 0 8 -7 6 -18 -4 -18
-17 -84 -47 -102 -47 -20 0 -9 20 15 26 31 8 85 68 85 95 0 15 5 19 16 15 9
-3 23 -6 32 -6z"/>
<path d="M68 243 c5 -10 13 -45 17 -78 3 -33 13 -70 20 -81 13 -20 10 -65 -4
-64 -3 1 -26 19 -51 40 l-45 40 -3 -41 c-4 -53 5 -59 92 -59 66 0 68 1 53 18
-21 22 -22 62 -3 87 20 28 40 13 61 -49 19 -54 20 -56 56 -56 28 0 38 5 42 20
3 11 10 20 16 20 6 0 11 -9 11 -20 0 -18 7 -20 79 -20 54 0 81 4 84 12 4 10 6
10 6 1 1 -16 64 -17 92 -2 15 7 24 7 33 0 9 -8 150 -11 445 -10 l431 1 0 23
c0 13 5 27 12 31 8 5 9 -2 5 -24 l-6 -32 689 0 c380 0 690 4 690 8 0 4 -5 13
-12 20 -9 9 -8 12 4 12 9 0 20 -9 23 -20 5 -17 15 -20 71 -20 63 0 64 0 64 28
0 15 -5 33 -10 38 -10 10 -31 145 -24 153 6 7 54 -103 54 -125 0 -40 29 -94
50 -94 24 0 27 28 4 37 -12 4 -14 14 -9 40 5 27 0 45 -27 91 -30 54 -31 56 -8
41 13 -9 32 -32 43 -52 18 -36 47 -50 47 -24 0 6 3 22 6 35 5 16 2 22 -9 22
-9 0 -17 -10 -20 -22 -3 -21 -4 -22 -12 -4 -5 11 -4 26 4 38 8 13 8 24 1 38
-12 23 -22 27 -14 6 3 -8 1 -17 -5 -21 -6 -3 -11 -1 -11 4 0 6 -7 11 -15 11
-8 0 -15 5 -15 10 0 16 -73 12 -98 -6 -20 -14 -22 -14 -22 0 0 14 -48 16 -436
16 -266 0 -433 -4 -429 -9 10 -17 -12 -21 -25 -6 -14 17 -95 21 -105 5 -3 -5
-11 -10 -16 -10 -6 0 -7 4 -4 10 4 6 -45 10 -134 9 -99 0 -141 -3 -145 -12 -5
-9 -7 -9 -12 0 -8 18 -69 16 -84 -2 -7 -8 -17 -15 -22 -15 -6 0 -5 7 2 15 11
13 -36 15 -414 15 l-426 0 0 -26 c0 -15 -4 -23 -10 -19 -6 4 -8 15 -5 26 6 18
0 19 -138 19 l-143 0 7 -52 c4 -29 8 -74 8 -100 1 -31 5 -48 14 -48 8 0 7 -4
-3 -10 -27 -17 -37 -11 -32 20 2 16 0 30 -6 30 -5 0 -7 27 -4 70 5 68 4 70
-22 80 -15 5 -90 10 -167 10 -130 0 -139 -1 -131 -17z"/>
<path d="M3194 233 c8 -32 21 -104 33 -177 4 -27 14 -51 22 -54 10 -3 12 10
10 64 -3 56 -1 69 11 69 12 0 16 -16 18 -68 4 -90 24 -85 28 7 3 75 8 86 27
67 9 -11 9 -14 0 -18 -18 -6 -16 -48 2 -63 12 -10 18 -10 31 1 13 10 17 10 25
-2 15 -24 10 -36 -14 -32 -14 3 -29 -2 -36 -11 -12 -14 -7 -16 44 -16 50 0 56
2 50 18 -34 82 -31 95 13 63 17 -12 34 -21 40 -21 5 0 15 -13 22 -30 11 -26
18 -30 51 -30 22 0 39 2 39 5 0 2 -11 39 -25 81 -29 88 -29 92 -13 76 21 -21
31 -13 14 13 -23 34 -20 38 14 20 34 -18 50 -13 50 16 0 28 23 18 35 -16 6
-16 19 -67 30 -112 16 -74 21 -83 41 -83 13 0 25 3 27 8 2 4 -6 41 -18 82 -13
41 -29 96 -35 123 l-13 47 -48 0 c-48 0 -49 -1 -49 -31 0 -27 -2 -30 -16 -18
-8 7 -13 20 -11 30 4 16 -9 18 -167 19 l-171 0 3 -55 c5 -72 -14 -73 -23 0 -6
46 -11 55 -27 55 -17 0 -19 -4 -14 -27z"/>
<path d="M3863 163 c4 -54 7 -113 7 -130 l0 -33 94 0 c92 0 94 1 100 25 4 14
1 34 -6 45 -11 16 -10 23 4 37 22 21 24 19 41 -48 11 -42 19 -55 36 -57 11 -2
21 0 21 5 0 24 -32 127 -49 159 -19 35 -18 55 2 82 15 19 -137 17 -153 -3 -7
-8 -28 -15 -46 -15 -24 0 -34 5 -34 15 0 8 -5 15 -12 15 -8 0 -9 -27 -5 -97z"/>
<path d="M4389 209 c2 -35 6 -47 12 -38 5 8 9 22 9 32 0 11 5 15 11 11 7 -4 9
-21 6 -40 -3 -19 -2 -34 3 -34 14 0 31 37 24 54 -3 9 -1 16 5 16 6 0 11 -5 11
-11 0 -8 4 -8 14 0 13 11 21 -8 28 -67 1 -7 7 -11 15 -8 7 3 13 1 13 -4 0 -6
-3 -10 -7 -10 -5 0 -16 -14 -25 -30 -17 -30 -12 -40 10 -18 9 9 12 9 12 -2 0
-8 -12 -24 -27 -37 l-28 -22 45 0 c32 -1 41 2 30 9 -11 7 -12 12 -3 21 8 8 13
6 18 -10 5 -16 15 -21 41 -21 30 0 34 3 35 28 l1 27 7 -25 c7 -24 10 -25 104
-28 99 -3 120 6 67 28 -16 7 -30 17 -30 23 0 5 -8 16 -17 23 -15 11 -16 15 -4
23 8 5 20 7 28 4 7 -3 13 -1 13 3 -1 15 -26 44 -39 44 -6 0 -11 11 -11 24 0
14 -5 28 -11 32 -6 3 -9 17 -6 30 3 18 0 24 -14 24 -10 0 -19 -9 -22 -22 l-4
-23 -2 23 c-1 22 -2 22 -158 22 l-158 0 4 -51z"/>
</g>
</svg>
